<svg width="512" height="512" viewBox="0 0 512 512" xmlns="http://www.w3.org/2000/svg">
  <defs>
    <linearGradient id="bg1" x1="0" y1="0" x2="1" y2="1">
      <stop offset="0" stop-color="#241a3a"/>
      <stop offset="0.55" stop-color="#1a1330"/>
      <stop offset="1" stop-color="#120c22"/>
    </linearGradient>
    <linearGradient id="gold" x1="0" y1="0" x2="0" y2="1">
      <stop offset="0" stop-color="#f6e8a8"/><stop offset="0.45" stop-color="#e3c45c"/><stop offset="1" stop-color="#b98a23"/>
    </linearGradient>
    <linearGradient id="burg" x1="0" y1="0" x2="0" y2="1"><stop offset="0" stop-color="#9a2f3c"/><stop offset="1" stop-color="#6a1822"/></linearGradient>
    <linearGradient id="grn" x1="0" y1="0" x2="0" y2="1"><stop offset="0" stop-color="#2f7a55"/><stop offset="1" stop-color="#184a33"/></linearGradient>
    <linearGradient id="nvy" x1="0" y1="0" x2="0" y2="1"><stop offset="0" stop-color="#36508f"/><stop offset="1" stop-color="#1d3160"/></linearGradient>
    <linearGradient id="page" x1="0" y1="0" x2="0" y2="1"><stop offset="0" stop-color="#fbf2da"/><stop offset="1" stop-color="#e7d4ab"/></linearGradient>
    <radialGradient id="glow" cx="0.5" cy="0.5" r="0.5">
      <stop offset="0" stop-color="#ffdf8a" stop-opacity="0.55"/>
      <stop offset="0.55" stop-color="#e7b94f" stop-opacity="0.18"/>
      <stop offset="1" stop-color="#e7b94f" stop-opacity="0"/>
    </radialGradient>
    <g id="spark"><path d="M0,-9 C1,-2.4 2.4,-1 9,0 C2.4,1 1,2.4 0,9 C-1,2.4 -2.4,1 -9,0 C-2.4,-1 -1,-2.4 0,-9 Z" fill="#f7e6a4"/></g>
    <g id="sparkSm"><path d="M0,-5 C0.6,-1.4 1.4,-0.6 5,0 C1.4,0.6 0.6,1.4 0,5 C-0.6,1.4 -1.4,0.6 -5,0 C-1.4,-0.6 -0.6,-1.4 0,-5 Z" fill="#f7e6a4"/></g>
    <g id="stack">
      <circle cx="0" cy="6" r="92" fill="url(#glow)"/>
      <g transform="translate(0,42) rotate(-3)">
        <rect x="-86" y="-20" width="172" height="40" rx="7" fill="url(#nvy)"/>
        <rect x="58" y="-15" width="26" height="30" rx="3" fill="url(#page)"/>
        <line x1="58" y1="-7" x2="84" y2="-7" stroke="#cdb780" stroke-width="1.4"/>
        <line x1="58" y1="0" x2="84" y2="0" stroke="#cdb780" stroke-width="1.4"/>
        <line x1="58" y1="7" x2="84" y2="7" stroke="#cdb780" stroke-width="1.4"/>
        <rect x="-78" y="-12" width="120" height="3.5" rx="1.75" fill="url(#gold)" opacity="0.85"/>
        <rect x="-78" y="8" width="120" height="3.5" rx="1.75" fill="url(#gold)" opacity="0.85"/>
      </g>
      <g transform="translate(-6,4) rotate(2)">
        <rect x="-80" y="-19" width="160" height="38" rx="7" fill="url(#grn)"/>
        <rect x="54" y="-14" width="24" height="28" rx="3" fill="url(#page)"/>
        <line x1="54" y1="-6" x2="78" y2="-6" stroke="#cdb780" stroke-width="1.4"/>
        <line x1="54" y1="2" x2="78" y2="2" stroke="#cdb780" stroke-width="1.4"/>
        <rect x="-72" y="-11" width="108" height="3.5" rx="1.75" fill="url(#gold)" opacity="0.85"/>
        <rect x="-72" y="7" width="108" height="3.5" rx="1.75" fill="url(#gold)" opacity="0.85"/>
        <path d="M30,17 L46,17 L46,52 L38,44 L30,52 Z" fill="#c5392f"/>
        <path d="M30,17 L46,17 L46,22 L30,22 Z" fill="#a02a22"/>
      </g>
      <g transform="translate(4,-32) rotate(-2)">
        <rect x="-66" y="-17" width="132" height="34" rx="6" fill="url(#burg)"/>
        <rect x="42" y="-12" width="22" height="24" rx="3" fill="url(#page)"/>
        <line x1="42" y1="-4" x2="64" y2="-4" stroke="#cdb780" stroke-width="1.3"/>
        <line x1="42" y1="3" x2="64" y2="3" stroke="#cdb780" stroke-width="1.3"/>
        <path d="M-2,-11 L-14,3 L-4,3 L-9,15 L9,-2 L-1,-2 L4,-11 Z" fill="url(#gold)"/>
      </g>
    </g>
  </defs>

  <rect width="512" height="512" rx="115" fill="url(#bg1)"/>
  <rect width="512" height="512" rx="115" fill="none" stroke="#f0d97f" stroke-width="2.5" opacity="0.25"/>

  <use href="#sparkSm" x="86" y="92" opacity="0.85"/>
  <use href="#spark" x="424" y="120" opacity="0.9"/>
  <use href="#sparkSm" x="70" y="250" opacity="0.7"/>
  <use href="#sparkSm" x="446" y="276" opacity="0.7"/>
  <use href="#sparkSm" x="100" y="410" opacity="0.6"/>
  <use href="#sparkSm" x="412" y="402" opacity="0.6"/>
  <circle cx="150" cy="76" r="2.6" fill="#f7e6a4"/>
  <circle cx="360" cy="82" r="1.9" fill="#f7e6a4"/>

  <g transform="translate(256,256) scale(1.75)"><use href="#stack"/></g>
</svg>
