<svg width="200" height="300" viewBox="0 0 200 300" xmlns="http://www.w3.org/2000/svg">
  <rect width="200" height="300" rx="8" fill="#241a3a"/>
  <g transform="translate(100, 162)">
    <rect x="-62" y="-81" width="32" height="125" rx="2" fill="#FBE9D6" stroke="#3D2410" stroke-width="1.5"/>
    <line x1="-57" y1="-62" x2="-35" y2="-62" stroke="#3D2410" stroke-width="1"/>
    <line x1="-57" y1="-50" x2="-40" y2="-50" stroke="#3D2410" stroke-width="1"/>
    <line x1="-57" y1="25" x2="-35" y2="25" stroke="#3D2410" stroke-width="1"/>
    <g transform="rotate(-6) translate(-15, 0)">
      <rect x="0" y="-69" width="30" height="113" rx="2" fill="#5C3317" stroke="#3D2410" stroke-width="1.5"/>
      <line x1="5" y1="-50" x2="25" y2="-50" stroke="#FBE9D6" stroke-width="1.2"/>
      <line x1="5" y1="-37" x2="20" y2="-37" stroke="#FBE9D6" stroke-width="1.2"/>
      <circle cx="15" cy="0" r="6" fill="none" stroke="#FBE9D6" stroke-width="1.2"/>
    </g>
    <rect x="27" y="-62" width="35" height="106" rx="2" fill="#8B4513" stroke="#3D2410" stroke-width="1.5"/>
    <line x1="32" y1="-43" x2="58" y2="-43" stroke="#FBE9D6" stroke-width="1"/>
    <line x1="32" y1="-31" x2="52" y2="-31" stroke="#FBE9D6" stroke-width="1"/>
    <line x1="32" y1="25" x2="58" y2="25" stroke="#FBE9D6" stroke-width="1"/>
    <line x1="-72" y1="47" x2="72" y2="47" stroke="#3D2410" stroke-width="3" stroke-linecap="round"/>
  </g>
  <text x="100" y="275" text-anchor="middle" fill="white" font-family="sans-serif" font-size="14" font-weight="500" letter-spacing="3">LIBRARYX</text>
</svg>
